<svg width="513" height="513" viewBox="0 0 513 513" fill="none" xmlns="http://www.w3.org/2000/svg">
<path d="M512.5 256.538C512.5 397.923 397.885 512.538 256.5 512.538C115.115 512.538 0.5 397.923 0.5 256.538C0.5 115.154 115.115 0.538452 256.5 0.538452C397.885 0.538452 512.5 115.154 512.5 256.538Z" fill="#2531D0" fill-opacity="0.74"/>
<path d="M254.5 306.6C239.3 306.6 225.6 303.8 213.4 298.2C201.4 292.4 191.2 284.6 182.8 274.8C174.4 264.8 168 253.2 163.6 240C159.2 226.8 157 212.7 157 197.7C157 177.1 160.9 158.7 168.7 142.5C176.5 126.1 187.6 113.2 202 103.8C216.6 94.2 234.1 89.4 254.5 89.4C269.7 89.4 283.3 92.2 295.3 97.8C307.5 103.4 317.8 111.2 326.2 121.2C334.6 131.2 341 142.7 345.4 155.7C350 168.7 352.3 182.7 352.3 197.7C352.3 213.3 350.1 226.9 345.7 238.5C341.3 249.9 336.1 259.8 330.1 268.2L356.8 282.9L343.9 306.6L314.8 285C307.4 291.2 298.7 296.4 288.7 300.6C278.7 304.6 267.3 306.6 254.5 306.6ZM253.9 282C262.1 282 269.5 281 276.1 279C282.9 277 288.7 274.5 293.5 271.5L270.7 257.1L282.7 235.2L309.7 254.7C314.5 246.9 317.9 238.4 319.9 229.2C322.1 219.8 323.2 209.3 323.2 197.7C323.2 186.9 321.6 176.5 318.4 166.5C315.4 156.5 310.9 147.6 304.9 139.8C299.1 131.8 291.9 125.5 283.3 120.9C274.9 116.3 265.3 114 254.5 114C240.1 114 227.8 117.7 217.6 125.1C207.4 132.3 199.6 142.2 194.2 154.8C188.8 167.4 186.1 181.7 186.1 197.7C186.1 208.5 187.6 219 190.6 229.2C193.6 239.2 198 248.2 203.8 256.2C209.6 264.2 216.7 270.5 225.1 275.1C233.5 279.7 243.1 282 253.9 282Z" fill="white"/>
<circle cx="257" cy="395" r="35" fill="white"/>
</svg>
